<?xml version="1.0" encoding="UTF-8"?>
<svg id="GFX_-_DP" data-name="GFX - DP" xmlns="http://www.w3.org/2000/svg" viewBox="0 0 592.01 14.63">
  <defs>
    <style>
      .cls-1 {
        stroke-width: 0px;
      }
    </style>
  </defs>
  <path class="cls-1" d="m2.58,1.91c-.74.66-1.6,1.22-2.58,1.68v1.7c.55-.2,1.16-.5,1.85-.91.69-.4,1.24-.81,1.67-1.21v11.2h1.76V0h-1.13c-.31.62-.83,1.26-1.56,1.91Z"/>
  <rect class="cls-1" x="9.58" y="8.31" width="5.4" height="1.77"/>
  <path class="cls-1" d="m20.36,1.91c-.74.66-1.6,1.22-2.58,1.68v1.7c.55-.2,1.16-.5,1.85-.91.69-.4,1.24-.81,1.67-1.21v11.2h1.76V0h-1.13c-.31.62-.83,1.26-1.56,1.91Z"/>
  <path class="cls-1" d="m82.27,1.91c-.74.66-1.6,1.22-2.58,1.68v1.7c.55-.2,1.16-.5,1.85-.91.69-.4,1.24-.81,1.67-1.21v11.2h1.76V0h-1.13c-.31.62-.83,1.26-1.56,1.91Z"/>
  <rect class="cls-1" x="89.27" y="8.31" width="5.4" height="1.77"/>
  <path class="cls-1" d="m99.09,11.73c.3-.32.98-.92,2.03-1.8,1.26-1.07,2.17-1.91,2.71-2.52.54-.61.93-1.19,1.17-1.75s.35-1.12.35-1.69c0-1.13-.4-2.07-1.2-2.83S102.26,0,100.88,0s-2.45.35-3.25,1.06-1.27,1.73-1.4,3.08l1.81.19c0-.9.26-1.6.77-2.11s1.19-.76,2.03-.76c.8,0,1.45.24,1.95.72.5.48.75,1.07.75,1.76s-.27,1.37-.82,2.11-1.6,1.76-3.15,3.03c-1,.82-1.77,1.54-2.3,2.17-.53.62-.92,1.26-1.16,1.9-.15.39-.22.8-.21,1.22h9.46v-1.69h-7.02c.2-.32.44-.64.74-.95Z"/>
  <path class="cls-1" d="m163.2,1.91c-.74.66-1.6,1.22-2.58,1.68v1.7c.55-.2,1.16-.5,1.85-.91.69-.4,1.24-.81,1.67-1.21v11.2h1.76V0h-1.13c-.31.62-.83,1.26-1.56,1.91Z"/>
  <rect class="cls-1" x="170.2" y="8.31" width="5.4" height="1.77"/>
  <path class="cls-1" d="m183.76,6.62c.65-.3,1.14-.7,1.47-1.21s.5-1.07.5-1.69c0-.65-.17-1.27-.52-1.85-.35-.58-.85-1.04-1.51-1.37S182.33,0,181.55,0c-1.13,0-2.08.32-2.84.97s-1.25,1.56-1.46,2.74l1.76.31c.13-.86.42-1.5.88-1.93s1.03-.64,1.71-.64,1.25.21,1.69.63.65.96.65,1.6c0,.81-.3,1.42-.9,1.81s-1.27.59-2.02.59c-.07,0-.17,0-.28-.02l-.2,1.54c.49-.13.91-.2,1.24-.2.81,0,1.48.26,2.01.79s.79,1.19.79,2-.29,1.56-.85,2.13c-.57.57-1.27.86-2.1.86-.7,0-1.29-.22-1.77-.66-.49-.44-.83-1.16-1.03-2.15l-1.76.23c.12,1.19.59,2.16,1.42,2.91.83.75,1.87,1.12,3.13,1.12,1.39,0,2.54-.43,3.46-1.3s1.37-1.93,1.37-3.18c0-.92-.23-1.69-.7-2.31s-1.13-1.02-1.97-1.22Z"/>
  <path class="cls-1" d="m244.23,1.91c-.74.66-1.6,1.22-2.58,1.68v1.7c.55-.2,1.16-.5,1.85-.91.69-.4,1.24-.81,1.67-1.21v11.2h1.76V0h-1.13c-.31.62-.83,1.26-1.56,1.91Z"/>
  <rect class="cls-1" x="251.23" y="8.31" width="5.4" height="1.77"/>
  <path class="cls-1" d="m265.48.06h-1.44l-6.53,9.28v1.61h6.21v3.43h1.76v-3.43h1.93v-1.61h-1.93V.06Zm-1.76,9.28h-4.48l4.48-6.46v6.46Z"/>
  <path class="cls-1" d="m324.86,11.73c.3-.32.98-.92,2.03-1.8,1.26-1.07,2.17-1.91,2.71-2.52s.93-1.19,1.17-1.75.35-1.12.35-1.69c0-1.13-.4-2.07-1.2-2.83s-1.89-1.14-3.26-1.14-2.44.35-3.25,1.06-1.27,1.73-1.4,3.08l1.81.19c0-.9.26-1.6.77-2.11s1.19-.76,2.03-.76c.8,0,1.45.24,1.95.72s.75,1.07.75,1.76-.27,1.37-.82,2.11-1.6,1.76-3.15,3.03c-1,.82-1.77,1.54-2.3,2.17s-.92,1.26-1.16,1.9c-.15.39-.22.8-.21,1.22h9.46v-1.69h-7.02c.2-.32.44-.64.74-.95Z"/>
  <rect class="cls-1" x="332.83" y="8.31" width="5.4" height="1.77"/>
  <path class="cls-1" d="m343.61,1.91c-.74.66-1.6,1.22-2.58,1.68v1.7c.55-.2,1.16-.5,1.85-.91s1.24-.81,1.67-1.21v11.2h1.76V0h-1.13c-.31.62-.83,1.26-1.56,1.91Z"/>
  <path class="cls-1" d="m405.86,11.73c.3-.32.98-.92,2.03-1.8,1.26-1.07,2.17-1.91,2.71-2.52s.93-1.19,1.17-1.75.35-1.12.35-1.69c0-1.13-.4-2.07-1.2-2.83s-1.89-1.14-3.26-1.14-2.44.35-3.25,1.06-1.27,1.73-1.4,3.08l1.81.19c0-.9.26-1.6.77-2.11s1.19-.76,2.03-.76c.8,0,1.45.24,1.95.72s.75,1.07.75,1.76-.27,1.37-.82,2.11-1.6,1.76-3.15,3.03c-1,.82-1.77,1.54-2.3,2.17s-.92,1.26-1.16,1.9c-.15.39-.22.8-.21,1.22h9.46v-1.69h-7.02c.2-.32.44-.64.74-.95Z"/>
  <rect class="cls-1" x="413.83" y="8.31" width="5.4" height="1.77"/>
  <path class="cls-1" d="m423.65,11.73c.3-.32.98-.92,2.03-1.8,1.26-1.07,2.17-1.91,2.71-2.52s.93-1.19,1.17-1.75.35-1.12.35-1.69c0-1.13-.4-2.07-1.2-2.83s-1.89-1.14-3.26-1.14-2.44.35-3.25,1.06-1.27,1.73-1.4,3.08l1.81.19c0-.9.26-1.6.77-2.11s1.19-.76,2.03-.76c.8,0,1.45.24,1.95.72s.75,1.07.75,1.76-.27,1.37-.82,2.11-1.6,1.76-3.15,3.03c-1,.82-1.77,1.54-2.3,2.17s-.92,1.26-1.16,1.9c-.15.39-.22.8-.21,1.22h9.46v-1.69h-7.02c.2-.32.44-.64.74-.95Z"/>
  <path class="cls-1" d="m486.86,11.73c.3-.32.98-.92,2.03-1.8,1.26-1.07,2.17-1.91,2.71-2.52s.93-1.19,1.17-1.75.35-1.12.35-1.69c0-1.13-.4-2.07-1.2-2.83s-1.89-1.14-3.26-1.14-2.44.35-3.25,1.06-1.27,1.73-1.4,3.08l1.81.19c0-.9.26-1.6.77-2.11s1.19-.76,2.03-.76c.8,0,1.45.24,1.95.72s.75,1.07.75,1.76-.27,1.37-.82,2.11-1.6,1.76-3.15,3.03c-1,.82-1.77,1.54-2.3,2.17s-.92,1.26-1.16,1.9c-.15.39-.22.8-.21,1.22h9.46v-1.69h-7.02c.2-.32.44-.64.74-.95Z"/>
  <rect class="cls-1" x="494.83" y="8.31" width="5.4" height="1.77"/>
  <path class="cls-1" d="m508.4,6.62c.65-.3,1.14-.7,1.47-1.21s.5-1.07.5-1.69c0-.65-.17-1.27-.52-1.85s-.85-1.04-1.51-1.37-1.38-.5-2.16-.5c-1.13,0-2.08.32-2.84.97s-1.25,1.56-1.46,2.74l1.76.31c.13-.86.42-1.5.88-1.93s1.03-.64,1.71-.64,1.25.21,1.69.63.65.96.65,1.6c0,.81-.3,1.42-.9,1.81s-1.27.59-2.02.59c-.07,0-.17,0-.28-.02l-.2,1.54c.49-.13.91-.2,1.24-.2.81,0,1.48.26,2.01.79s.79,1.19.79,2-.28,1.56-.85,2.13-1.27.86-2.09.86c-.7,0-1.29-.22-1.77-.66s-.83-1.16-1.03-2.15l-1.76.23c.12,1.19.59,2.16,1.42,2.91s1.87,1.12,3.13,1.12c1.39,0,2.55-.43,3.46-1.3s1.37-1.93,1.37-3.18c0-.92-.23-1.69-.7-2.31s-1.13-1.02-1.97-1.22Z"/>
  <path class="cls-1" d="m567.86,11.73c.3-.32.98-.92,2.03-1.8,1.26-1.07,2.17-1.91,2.71-2.52s.93-1.19,1.17-1.75.35-1.12.35-1.69c0-1.13-.4-2.07-1.2-2.83s-1.89-1.14-3.26-1.14-2.44.35-3.25,1.06-1.27,1.73-1.4,3.08l1.81.19c0-.9.26-1.6.77-2.11s1.19-.76,2.03-.76c.8,0,1.45.24,1.95.72s.75,1.07.75,1.76-.27,1.37-.82,2.11-1.6,1.76-3.15,3.03c-1,.82-1.77,1.54-2.3,2.17s-.92,1.26-1.16,1.9c-.15.39-.22.8-.21,1.22h9.46v-1.69h-7.02c.2-.32.44-.64.74-.95Z"/>
  <rect class="cls-1" x="575.83" y="8.31" width="5.4" height="1.77"/>
  <path class="cls-1" d="m590.08,9.34V.06h-1.44l-6.53,9.28v1.61h6.21v3.43h1.76v-3.43h1.93v-1.61h-1.93Zm-1.76,0h-4.48l4.48-6.46v6.46Z"/>
</svg>