<?xml version="1.0" encoding="UTF-8" standalone="no"?>
<!-- Created with Inkscape (http://www.inkscape.org/) -->

<svg
   version="1.1"
   id="svg1"
   width="505.63199"
   height="535.008"
   viewBox="0 0 505.63199 535.008"
   xmlns="http://www.w3.org/2000/svg"
   xmlns:svg="http://www.w3.org/2000/svg">
  <defs
     id="defs1">
    <clipPath
       clipPathUnits="userSpaceOnUse"
       id="clipPath2">
      <path
         d="M 0,401.256 H 379.224 V 0 H 0 Z"
         transform="translate(-61.857101,-350.61211)"
         id="path2" />
    </clipPath>
    <clipPath
       clipPathUnits="userSpaceOnUse"
       id="clipPath4">
      <path
         d="M 0,401.256 H 379.224 V 0 H 0 Z"
         id="path4" />
    </clipPath>
    <clipPath
       clipPathUnits="userSpaceOnUse"
       id="clipPath6">
      <path
         d="M 0,401.256 H 379.224 V 0 H 0 Z"
         transform="translate(-79.640304,-350.61211)"
         id="path6" />
    </clipPath>
    <clipPath
       clipPathUnits="userSpaceOnUse"
       id="clipPath8">
      <path
         d="M 0,401.256 H 379.224 V 0 H 0 Z"
         transform="translate(-141.5485,-350.61211)"
         id="path8" />
    </clipPath>
    <clipPath
       clipPathUnits="userSpaceOnUse"
       id="clipPath10">
      <path
         d="M 0,401.256 H 379.224 V 0 H 0 Z"
         id="path10" />
    </clipPath>
    <clipPath
       clipPathUnits="userSpaceOnUse"
       id="clipPath12">
      <path
         d="M 0,401.256 H 379.224 V 0 H 0 Z"
         transform="translate(-161.94891,-352.30161)"
         id="path12" />
    </clipPath>
    <clipPath
       clipPathUnits="userSpaceOnUse"
       id="clipPath14">
      <path
         d="M 0,401.256 H 379.224 V 0 H 0 Z"
         transform="translate(-222.4753,-350.61211)"
         id="path14" />
    </clipPath>
    <clipPath
       clipPathUnits="userSpaceOnUse"
       id="clipPath16">
      <path
         d="M 0,401.256 H 379.224 V 0 H 0 Z"
         id="path16" />
    </clipPath>
    <clipPath
       clipPathUnits="userSpaceOnUse"
       id="clipPath18">
      <path
         d="M 0,401.256 H 379.224 V 0 H 0 Z"
         transform="translate(-233.64721,-354.39141)"
         id="path18" />
    </clipPath>
    <clipPath
       clipPathUnits="userSpaceOnUse"
       id="clipPath20">
      <path
         d="M 0,401.256 H 379.224 V 0 H 0 Z"
         transform="translate(-303.50461,-350.61211)"
         id="path20" />
    </clipPath>
    <clipPath
       clipPathUnits="userSpaceOnUse"
       id="clipPath22">
      <path
         d="M 0,401.256 H 379.224 V 0 H 0 Z"
         id="path22" />
    </clipPath>
    <clipPath
       clipPathUnits="userSpaceOnUse"
       id="clipPath24">
      <path
         d="M 0,401.256 H 379.224 V 0 H 0 Z"
         transform="translate(-320.30151,-355.65121)"
         id="path24" />
    </clipPath>
  </defs>
  <g
     id="layer-MC0">
    <path
       id="path1"
       d="M 0,0 H -1.758 V 11.201 C -2.182,10.798 -2.736,10.394 -3.424,9.99 -4.109,9.587 -4.727,9.284 -5.273,9.082 v 1.699 c 0.982,0.462 1.841,1.023 2.578,1.68 0.736,0.657 1.256,1.296 1.562,1.914 H 0 Z"
       style="fill:#231f20;fill-opacity:1;fill-rule:nonzero;stroke:none"
       transform="matrix(1.3333333,0,0,-1.3333333,82.476133,67.5252)"
       clip-path="url(#clipPath2)" />
    <path
       id="path3"
       d="m 66.164,356.677 h 5.4 v -1.768 h -5.4 z"
       style="fill:#231f20;fill-opacity:1;fill-rule:nonzero;stroke:none"
       transform="matrix(1.3333333,0,0,-1.3333333,0,535.008)"
       clip-path="url(#clipPath4)" />
    <path
       id="path5"
       d="M 0,0 H -1.758 V 11.201 C -2.182,10.798 -2.736,10.394 -3.424,9.99 -4.109,9.587 -4.727,9.284 -5.273,9.082 v 1.699 c 0.982,0.462 1.841,1.023 2.578,1.68 0.736,0.657 1.256,1.296 1.562,1.914 H 0 Z"
       style="fill:#231f20;fill-opacity:1;fill-rule:nonzero;stroke:none"
       transform="matrix(1.3333333,0,0,-1.3333333,106.18707,67.5252)"
       clip-path="url(#clipPath6)" />
    <path
       id="path7"
       d="M 0,0 H -1.758 V 11.201 C -2.182,10.798 -2.736,10.394 -3.424,9.99 -4.109,9.587 -4.727,9.284 -5.273,9.082 v 1.699 c 0.982,0.462 1.841,1.023 2.578,1.68 0.736,0.657 1.256,1.296 1.562,1.914 H 0 Z"
       style="fill:#231f20;fill-opacity:1;fill-rule:nonzero;stroke:none"
       transform="matrix(1.3333333,0,0,-1.3333333,188.73133,67.5252)"
       clip-path="url(#clipPath8)" />
    <path
       id="path9"
       d="m 145.855,356.677 h 5.4 v -1.768 h -5.4 z"
       style="fill:#231f20;fill-opacity:1;fill-rule:nonzero;stroke:none"
       transform="matrix(1.3333333,0,0,-1.3333333,0,535.008)"
       clip-path="url(#clipPath10)" />
    <path
       id="path11"
       d="m 0,0 v -1.689 h -9.463 c -0.014,0.422 0.055,0.83 0.205,1.22 0.24,0.645 0.627,1.28 1.158,1.905 0.53,0.625 1.297,1.347 2.299,2.168 1.557,1.276 2.608,2.287 3.155,3.032 0.546,0.745 0.82,1.45 0.82,2.114 0,0.696 -0.25,1.284 -0.746,1.763 -0.5,0.478 -1.149,0.717 -1.949,0.717 -0.846,0 -1.524,-0.253 -2.032,-0.761 -0.508,-0.508 -0.765,-1.211 -0.771,-2.11 l -1.807,0.186 c 0.123,1.348 0.59,2.375 1.397,3.081 0.806,0.706 1.89,1.06 3.252,1.06 1.373,0 2.461,-0.381 3.261,-1.143 C -0.42,10.781 -0.02,9.837 -0.02,8.711 -0.02,8.138 -0.137,7.575 -0.371,7.021 -0.605,6.468 -0.994,5.886 -1.537,5.273 -2.082,4.661 -2.984,3.821 -4.248,2.754 -5.303,1.868 -5.98,1.268 -6.279,0.952 -6.578,0.637 -6.826,0.319 -7.021,0 Z"
       style="fill:#231f20;fill-opacity:1;fill-rule:nonzero;stroke:none"
       transform="matrix(1.3333333,0,0,-1.3333333,215.93187,65.272533)"
       clip-path="url(#clipPath12)" />
    <path
       id="path13"
       d="M 0,0 H -1.758 V 11.201 C -2.182,10.798 -2.736,10.394 -3.424,9.99 -4.109,9.587 -4.727,9.284 -5.273,9.082 v 1.699 c 0.982,0.462 1.841,1.023 2.578,1.68 0.736,0.657 1.256,1.296 1.562,1.914 H 0 Z"
       style="fill:#231f20;fill-opacity:1;fill-rule:nonzero;stroke:none"
       transform="matrix(1.3333333,0,0,-1.3333333,296.63373,67.5252)"
       clip-path="url(#clipPath14)" />
    <path
       id="path15"
       d="m 226.782,356.677 h 5.4 v -1.768 h -5.4 z"
       style="fill:#231f20;fill-opacity:1;fill-rule:nonzero;stroke:none"
       transform="matrix(1.3333333,0,0,-1.3333333,0,535.008)"
       clip-path="url(#clipPath16)" />
    <path
       id="path17"
       d="m 0,0 1.758,0.234 c 0.201,-0.996 0.545,-1.713 1.031,-2.153 0.484,-0.439 1.074,-0.659 1.772,-0.659 0.826,0 1.525,0.286 2.095,0.859 C 7.225,-1.146 7.51,-0.437 7.51,0.41 7.51,1.218 7.246,1.883 6.719,2.407 6.191,2.932 5.521,3.193 4.707,3.193 4.375,3.193 3.961,3.128 3.467,2.998 l 0.195,1.543 c 0.117,-0.013 0.211,-0.02 0.283,-0.02 0.748,0 1.422,0.196 2.022,0.586 0.599,0.391 0.898,0.994 0.898,1.807 0,0.645 -0.219,1.179 -0.654,1.602 C 5.775,8.938 5.211,9.15 4.521,9.15 3.838,9.15 3.268,8.936 2.813,8.506 2.357,8.076 2.064,7.432 1.934,6.572 L 0.176,6.885 c 0.215,1.178 0.703,2.092 1.465,2.739 0.761,0.647 1.709,0.972 2.841,0.972 0.782,0 1.5,-0.168 2.159,-0.503 C 7.299,9.758 7.801,9.3 8.148,8.721 8.498,8.142 8.672,7.526 8.672,6.875 8.672,6.257 8.506,5.693 8.174,5.186 7.842,4.678 7.35,4.274 6.699,3.975 7.545,3.779 8.203,3.374 8.672,2.759 9.141,2.144 9.375,1.374 9.375,0.449 9.375,-0.801 8.92,-1.86 8.008,-2.729 7.096,-3.599 5.943,-4.033 4.551,-4.033 3.295,-4.033 2.25,-3.659 1.422,-2.91 0.59,-2.161 0.117,-1.191 0,0"
       style="fill:#231f20;fill-opacity:1;fill-rule:nonzero;stroke:none"
       transform="matrix(1.3333333,0,0,-1.3333333,311.5296,62.486133)"
       clip-path="url(#clipPath18)" />
    <path
       id="path19"
       d="M 0,0 H -1.758 V 11.201 C -2.182,10.798 -2.736,10.394 -3.424,9.99 -4.109,9.587 -4.727,9.284 -5.273,9.082 v 1.699 c 0.982,0.462 1.841,1.023 2.578,1.68 0.736,0.657 1.256,1.296 1.562,1.914 H 0 Z"
       style="fill:#231f20;fill-opacity:1;fill-rule:nonzero;stroke:none"
       transform="matrix(1.3333333,0,0,-1.3333333,404.6728,67.5252)"
       clip-path="url(#clipPath20)" />
    <path
       id="path21"
       d="m 307.811,356.677 h 5.4 v -1.768 h -5.4 z"
       style="fill:#231f20;fill-opacity:1;fill-rule:nonzero;stroke:none"
       transform="matrix(1.3333333,0,0,-1.3333333,0,535.008)"
       clip-path="url(#clipPath22)" />
    <path
       id="path23"
       d="M 0,0 V 6.455 L -4.482,0 Z m 0,-5.039 v 3.428 H -6.211 V 0 L 0.322,9.277 H 1.758 V 0 H 3.691 V -1.611 H 1.758 v -3.428 z"
       style="fill:#231f20;fill-opacity:1;fill-rule:nonzero;stroke:none"
       transform="matrix(1.3333333,0,0,-1.3333333,427.06867,60.8064)"
       clip-path="url(#clipPath24)" />
  </g>
</svg>
