<?xml version="1.0" encoding="UTF-8"?>
<svg id="Layer_1" data-name="Layer 1" xmlns="http://www.w3.org/2000/svg" xmlns:xlink="http://www.w3.org/1999/xlink" viewBox="0 0 1221.84 412.56">
  <defs>
    <style>
      .cls-1 {
        fill: none;
      }

      .cls-1, .cls-2 {
        stroke-width: 0px;
      }

      .cls-2 {
        fill: #fff;
      }

      .cls-3 {
        clip-path: url(#clippath);
      }
    </style>
    <clipPath id="clippath">
      <rect class="cls-1" width="1221.84" height="412.56"/>
    </clipPath>
  </defs>
  <g class="cls-3">
    <path class="cls-2" d="m1169.77,38.98h0c-.31.62-.83,1.26-1.56,1.91-.74.66-1.6,1.22-2.58,1.68v1.7h0c.55-.2,1.16-.51,1.85-.91.69-.4,1.24-.81,1.66-1.21v11.2h1.76v-14.38h-1.13Z"/>
    <polygon class="cls-2" points="1175.21 47.29 1175.2 47.29 1175.2 49.06 1180.6 49.06 1180.6 49.05 1180.61 49.05 1180.61 47.29 1175.21 47.29"/>
    <path class="cls-2" d="m1188.68,38.98h-1.14c-.31.62-.83,1.26-1.56,1.92-.74.66-1.6,1.22-2.58,1.68v1.7h0c.55-.2,1.16-.5,1.85-.91.69-.4,1.24-.81,1.66-1.21v11.2h1.76v-14.38Z"/>
    <path class="cls-2" d="m1088.76,38.98h0c-.31.62-.83,1.26-1.56,1.91-.74.66-1.6,1.22-2.58,1.68v1.7h0c.55-.2,1.16-.51,1.85-.91.69-.4,1.24-.81,1.66-1.21v11.2h1.76v-14.38h-1.13Z"/>
    <polygon class="cls-2" points="1094.2 47.29 1094.2 47.29 1094.2 49.06 1099.6 49.06 1099.6 49.05 1099.6 49.05 1099.6 47.29 1094.2 47.29"/>
    <path class="cls-2" d="m1104.02,50.71c.3-.32.98-.92,2.03-1.8,1.26-1.07,2.17-1.91,2.71-2.52.54-.61.93-1.2,1.17-1.75.23-.55.35-1.12.35-1.69,0-1.13-.4-2.07-1.2-2.83-.8-.76-1.89-1.14-3.26-1.14-.68,0-1.29.09-1.84.26-.54.18-1.02.44-1.42.8-.81.71-1.27,1.73-1.4,3.08l1.81.18h0c0-.9.26-1.6.77-2.11.38-.38.86-.62,1.43-.71.19-.03.39-.05.6-.05.8,0,1.45.24,1.95.72.5.48.75,1.07.75,1.76s-.27,1.37-.82,2.11-1.6,1.76-3.15,3.03c-1,.82-1.77,1.54-2.3,2.17-.53.62-.92,1.26-1.16,1.9-.15.39-.22.8-.21,1.22h9.46v-1.69h-7.02c.19-.32.44-.64.74-.95"/>
    <path class="cls-2" d="m1006.2,40.89c-.74.66-1.6,1.22-2.58,1.68v1.7c.55-.2,1.16-.5,1.85-.91.69-.4,1.24-.81,1.67-1.21v11.2h1.76v-14.38h-1.13c-.31.62-.83,1.26-1.56,1.91"/>
    <polygon class="cls-2" points="1013.2 47.29 1013.2 49.05 1013.2 49.06 1018.6 49.06 1018.6 49.05 1018.6 47.29 1013.2 47.29"/>
    <path class="cls-2" d="m1028.74,46.81c-.47-.61-1.13-1.02-1.97-1.22.65-.3,1.14-.7,1.47-1.21.33-.51.5-1.07.5-1.69,0-.65-.17-1.27-.52-1.85-.35-.58-.85-1.04-1.51-1.37-.66-.33-1.38-.5-2.16-.5-1.13,0-2.08.32-2.84.97-.76.65-1.25,1.56-1.47,2.74h0s1.76.31,1.76.31c.13-.86.42-1.5.88-1.93.45-.43,1.02-.64,1.71-.64s1.25.21,1.69.64c.44.42.65.96.65,1.6,0,.81-.3,1.42-.9,1.81-.6.39-1.27.59-2.02.59-.07,0-.17,0-.28-.02l-.2,1.54c.49-.13.91-.2,1.24-.2.82,0,1.48.26,2.01.79.53.52.79,1.19.79,2s-.28,1.56-.85,2.13c-.57.57-1.27.86-2.09.86-.7,0-1.29-.22-1.77-.66-.49-.44-.83-1.16-1.03-2.15l-1.76.23c.12,1.19.59,2.16,1.42,2.91.83.75,1.87,1.12,3.13,1.12,1.39,0,2.55-.43,3.46-1.3s1.37-1.93,1.37-3.18c0-.93-.23-1.7-.7-2.31"/>
    <path class="cls-2" d="m925.2,40.89c-.74.66-1.6,1.22-2.58,1.68v1.7c.55-.2,1.16-.5,1.85-.91.69-.4,1.24-.81,1.67-1.21v11.2h1.76v-14.38h-1.13c-.31.62-.83,1.26-1.56,1.91"/>
    <polygon class="cls-2" points="932.2 47.29 932.2 49.05 932.2 49.06 937.6 49.06 937.6 49.05 937.6 47.29 932.2 47.29"/>
    <path class="cls-2" d="m946.45,39.04h-1.44l-6.53,9.28v1.61h0s6.21,0,6.21,0v3.43h0s1.76,0,1.76,0h0v-3.43h1.93v-1.61h-1.93v-9.28Zm-6.24,9.28l4.48-6.45v6.45h-4.48Z"/>
    <path class="cls-2" d="m844.2,40.89c-.74.66-1.6,1.22-2.58,1.68v1.7c.55-.2,1.16-.5,1.85-.91.69-.4,1.24-.81,1.67-1.21v11.2h1.76v-14.38h-1.13c-.31.62-.83,1.26-1.56,1.91"/>
    <polygon class="cls-2" points="851.2 47.29 851.2 49.05 851.2 49.06 856.6 49.06 856.6 49.05 856.6 47.29 851.2 47.29"/>
    <path class="cls-2" d="m866.26,45.16c-.86-.87-1.91-1.3-3.16-1.3-.94,0-1.85.3-2.71.9l.77-3.85h5.71v-1.68h0s-7.12,0-7.12,0l-1.39,7.35,1.65.21c.26-.41.62-.74,1.07-1,.45-.26.97-.39,1.53-.39.91,0,1.65.29,2.21.87.56.58.84,1.37.84,2.37,0,1.06-.29,1.9-.88,2.54s-1.3.96-2.15.96c-.7,0-1.3-.23-1.8-.68-.5-.45-.82-1.13-.95-2.03l-1.85.16h0c.12,1.2.59,2.17,1.41,2.9.82.73,1.89,1.09,3.19,1.09,1.59,0,2.84-.58,3.76-1.74.76-.95,1.13-2.06,1.13-3.36,0-1.36-.43-2.47-1.29-3.34"/>
    <path class="cls-2" d="m763.2,40.89c-.74.66-1.6,1.22-2.58,1.68v1.7c.55-.2,1.16-.5,1.85-.91.69-.4,1.24-.81,1.67-1.21v11.2h1.76v-14.38h-1.13c-.31.62-.83,1.26-1.56,1.91"/>
    <polygon class="cls-2" points="770.2 47.29 770.2 49.05 770.2 49.06 775.6 49.06 775.6 49.05 775.6 47.29 770.2 47.29"/>
    <path class="cls-2" d="m785.2,45.36c-.82-.86-1.82-1.29-2.99-1.29-.67,0-1.31.16-1.92.47-.61.31-1.13.79-1.55,1.44.01-1.43.18-2.54.5-3.31.32-.77.76-1.36,1.31-1.77.42-.31.91-.47,1.47-.47.7,0,1.28.25,1.76.75.29.31.51.81.66,1.5l1.75-.14c-.14-1.11-.57-1.99-1.29-2.62-.72-.63-1.64-.95-2.77-.95-1.51,0-2.71.55-3.6,1.64-1.02,1.26-1.53,3.27-1.53,6.04h0c0,2.47.46,4.25,1.39,5.33.92,1.08,2.12,1.62,3.58,1.62.86,0,1.63-.21,2.3-.61.68-.41,1.21-1,1.6-1.77.39-.77.58-1.61.58-2.51,0-1.37-.41-2.48-1.24-3.35m-5.81,5.09c-.26-.55-.39-1.13-.39-1.74,0-.93.28-1.67.83-2.24.55-.57,1.23-.85,2.02-.85s1.47.29,1.99.85.79,1.35.79,2.34-.27,1.84-.8,2.44-1.17.9-1.91.9c-.51,0-.99-.14-1.46-.43-.46-.29-.82-.71-1.08-1.27"/>
    <path class="cls-2" d="m682.2,40.89c-.74.66-1.6,1.22-2.58,1.68v1.7c.55-.2,1.16-.5,1.85-.91.69-.4,1.24-.81,1.67-1.21v11.2h1.76v-14.38h-1.13c-.31.62-.83,1.26-1.56,1.91"/>
    <polygon class="cls-2" points="689.2 47.29 689.2 49.05 689.2 49.06 694.6 49.06 694.6 49.05 694.6 47.29 689.2 47.29"/>
    <path class="cls-2" d="m696.18,39.22v1.69h7.01c-.89,1.02-1.73,2.26-2.53,3.74-.79,1.48-1.4,3.02-1.82,4.61-.42,1.6-.64,2.96-.66,4.08h0s1.81,0,1.81,0c.1-1.43.32-2.74.67-3.94.49-1.7,1.18-3.35,2.07-4.96.9-1.61,1.8-2.9,2.71-3.87v-1.37h-9.27Z"/>
    <path class="cls-2" d="m602.77,38.98h0c-.31.62-.83,1.26-1.56,1.91-.74.66-1.6,1.22-2.58,1.68v1.7h0c.55-.2,1.16-.51,1.85-.91.69-.4,1.24-.81,1.66-1.21v11.2h1.76v-14.38h-1.13Z"/>
    <polygon class="cls-2" points="608.21 47.29 608.21 47.29 608.21 49.06 613.61 49.06 613.61 49.05 613.61 49.05 613.61 47.29 608.21 47.29"/>
    <path class="cls-2" d="m621.78,45.59c.71-.27,1.24-.65,1.59-1.14.35-.49.52-1.07.52-1.73,0-1.04-.38-1.92-1.14-2.65-.76-.73-1.77-1.09-3.02-1.09-.31,0-.61.02-.89.07-.84.13-1.54.47-2.1,1-.75.71-1.12,1.58-1.12,2.63,0,.69.18,1.28.53,1.78.35.5.89.88,1.62,1.14-.87.23-1.54.66-2.02,1.28-.47.63-.71,1.41-.71,2.34,0,1.25.43,2.29,1.3,3.13.86.84,2.01,1.26,3.42,1.26.35,0,.69-.03,1.01-.08.96-.16,1.76-.55,2.41-1.17.87-.83,1.3-1.86,1.3-3.09,0-.88-.23-1.65-.69-2.29-.46-.64-1.13-1.1-2.01-1.39m-2.03-5.17c.66,0,1.22.22,1.67.66.45.44.67.98.67,1.63s-.22,1.14-.65,1.57c-.22.21-.46.37-.74.48-.28.11-.58.16-.92.16-.7,0-1.26-.21-1.7-.64-.44-.43-.65-.98-.65-1.66,0-.6.22-1.11.66-1.54.33-.32.73-.52,1.19-.6.15-.03.31-.04.48-.04m.03,11.73c-.54,0-1.05-.13-1.51-.39-.47-.26-.82-.62-1.06-1.09-.24-.47-.36-.95-.36-1.46,0-.82.27-1.5.82-2.05.41-.41.89-.67,1.46-.77.19-.03.39-.05.59-.05.85,0,1.55.28,2.11.83.56.55.84,1.25.84,2.1s-.27,1.52-.82,2.06c-.41.4-.9.66-1.48.76-.19.03-.39.05-.6.05"/>
    <path class="cls-2" d="m521.77,38.98h0c-.31.62-.83,1.26-1.56,1.91-.74.66-1.6,1.22-2.58,1.68v1.7h0c.55-.2,1.16-.51,1.85-.91.69-.4,1.24-.81,1.66-1.21v11.2h1.76v-14.38h-1.13Z"/>
    <polygon class="cls-2" points="527.21 47.29 527.21 47.29 527.21 49.06 532.61 49.06 532.61 49.05 532.61 49.05 532.61 47.29 527.21 47.29"/>
    <path class="cls-2" d="m541.12,39.73c-.77-.5-1.62-.75-2.55-.75-.32,0-.63.03-.93.08-.89.17-1.65.58-2.29,1.24-.85.89-1.28,2.05-1.28,3.51s.41,2.54,1.23,3.4c.82.86,1.82,1.29,3.01,1.29.53,0,1.04-.1,1.51-.29.16-.07.32-.14.47-.23.61-.35,1.09-.8,1.44-1.36,0,.16.01.27.01.35,0,.73-.09,1.45-.26,2.15-.18.7-.39,1.26-.65,1.67-.26.41-.59.74-1,.99-.2.12-.42.22-.66.28-.24.06-.49.09-.76.09-.63,0-1.15-.18-1.55-.54-.4-.36-.68-.93-.82-1.73l-1.69.16h0c.14,1.13.57,2,1.28,2.62.71.62,1.62.93,2.74.93.53,0,1.02-.07,1.48-.21.46-.14.89-.35,1.28-.64.79-.57,1.38-1.39,1.77-2.48.4-1.08.6-2.54.6-4.37s-.2-3.1-.6-4.03c-.4-.93-.99-1.64-1.76-2.14m-2.39,7.22c-.81,0-1.49-.28-2.04-.85-.55-.57-.82-1.31-.82-2.22,0-1.02.29-1.84.87-2.48.29-.32.6-.56.94-.72h.04c.16-.08.32-.14.49-.18.18-.04.37-.06.57-.06.76,0,1.4.3,1.94.89.54.59.81,1.39.81,2.4s-.26,1.8-.79,2.37c-.39.43-.87.69-1.42.8-.18.04-.38.05-.58.05"/>
    <path class="cls-2" d="m435.29,38.98h0c-.31.62-.83,1.26-1.56,1.91-.74.66-1.6,1.22-2.58,1.68v1.7h0c.55-.2,1.16-.51,1.85-.91.69-.4,1.24-.81,1.66-1.21v11.2h1.76v-14.38h-1.13Z"/>
    <polygon class="cls-2" points="440.73 47.29 440.73 47.29 440.73 49.06 446.13 49.06 446.13 49.05 446.13 49.05 446.13 47.29 440.73 47.29"/>
    <path class="cls-2" d="m453.07,38.98h0c-.31.62-.83,1.26-1.56,1.91-.74.66-1.6,1.22-2.58,1.68v1.7h0c.55-.2,1.16-.51,1.85-.91.69-.4,1.24-.81,1.66-1.21v11.2h1.76v-14.38h-1.13Z"/>
    <path class="cls-2" d="m466.83,40.78c-.38-.58-.85-1.03-1.44-1.34-.58-.31-1.25-.46-2.02-.46-.52,0-1,.07-1.43.21-.43.14-.82.35-1.16.63-.69.56-1.2,1.35-1.55,2.39-.35,1.03-.52,2.39-.52,4.09,0,2.69.47,4.63,1.42,5.82.79.99,1.87,1.48,3.25,1.48.52,0,1-.07,1.44-.21.43-.14.82-.35,1.17-.63.68-.56,1.2-1.36,1.55-2.39.35-1.03.52-2.39.52-4.07,0-1.42-.11-2.55-.32-3.38-.21-.84-.51-1.55-.89-2.13m-3.46,11.37c-.81,0-1.49-.39-2.04-1.17-.55-.78-.82-2.34-.82-4.69s.3-3.96.91-4.83c.36-.51.81-.83,1.36-.96.18-.04.37-.06.57-.06.82,0,1.51.39,2.06,1.16.55.77.82,2.34.82,4.7s-.27,3.91-.82,4.69c-.41.58-.9.95-1.45,1.1-.18.05-.38.07-.58.07"/>
    <path class="cls-2" d="m354.99,38.99h0c-.31.62-.83,1.26-1.56,1.91-.74.66-1.6,1.22-2.58,1.68v1.7h0c.55-.2,1.16-.51,1.85-.91.69-.4,1.24-.81,1.66-1.21v11.2h1.76v-14.38h-1.13Z"/>
    <polygon class="cls-2" points="360.43 47.3 360.43 47.3 360.43 49.07 365.83 49.07 365.83 49.07 365.83 49.07 365.83 47.3 360.43 47.3"/>
    <path class="cls-2" d="m372.77,38.99h0c-.31.62-.83,1.26-1.56,1.91-.74.66-1.6,1.22-2.58,1.68v1.7h0c.55-.2,1.16-.51,1.85-.91.69-.4,1.24-.81,1.66-1.21v11.2h1.76v-14.38h-1.13Z"/>
    <path class="cls-2" d="m382.41,38.99h0c-.31.62-.83,1.26-1.56,1.91-.74.66-1.6,1.22-2.58,1.68v1.7h0c.55-.2,1.16-.51,1.85-.91.69-.4,1.24-.81,1.66-1.21v11.2h1.76v-14.38h-1.13Z"/>
    <path class="cls-2" d="m273.25,38.98h0c-.31.62-.83,1.26-1.56,1.91-.74.66-1.6,1.22-2.58,1.68v1.7h0c.55-.2,1.16-.51,1.85-.91.69-.4,1.24-.81,1.66-1.21v11.2h1.76v-14.38h-1.13Z"/>
    <polygon class="cls-2" points="278.69 47.29 278.69 47.29 278.69 49.06 284.09 49.06 284.09 49.05 284.09 49.05 284.09 47.29 278.69 47.29"/>
    <path class="cls-2" d="m291.03,38.98h0c-.31.62-.83,1.26-1.56,1.91-.74.66-1.6,1.22-2.58,1.68v1.7h0c.55-.2,1.16-.51,1.85-.91.69-.4,1.24-.81,1.66-1.21v11.2h1.76v-14.38h-1.13Z"/>
    <path class="cls-2" d="m299.63,50.71c.3-.32.98-.92,2.03-1.8,1.26-1.07,2.17-1.91,2.71-2.52.54-.61.93-1.2,1.17-1.75.23-.55.35-1.12.35-1.69,0-1.13-.4-2.07-1.2-2.83-.8-.76-1.89-1.14-3.26-1.14-.68,0-1.29.09-1.84.26-.54.18-1.02.44-1.42.8-.81.71-1.27,1.73-1.4,3.08l1.81.18h0c0-.9.26-1.6.77-2.11.38-.38.86-.62,1.43-.71.19-.03.39-.05.6-.05.8,0,1.45.24,1.95.72.5.48.75,1.07.75,1.76s-.27,1.37-.82,2.11-1.6,1.76-3.15,3.03c-1,.82-1.77,1.54-2.3,2.17-.53.62-.92,1.26-1.16,1.9-.15.39-.22.8-.21,1.22h9.46v-1.69h-7.02c.19-.32.44-.64.74-.95"/>
    <path class="cls-2" d="m192.25,38.99h0c-.31.62-.83,1.26-1.56,1.91-.74.66-1.6,1.22-2.58,1.68v1.7h0c.55-.2,1.16-.51,1.85-.91.69-.4,1.24-.81,1.66-1.21v11.2h1.76v-14.38h-1.13Z"/>
    <polygon class="cls-2" points="197.69 47.3 197.69 47.3 197.69 49.07 203.09 49.07 203.09 49.07 203.09 49.07 203.09 47.3 197.69 47.3"/>
    <path class="cls-2" d="m210.03,38.99h0c-.31.62-.83,1.26-1.56,1.91-.74.66-1.6,1.22-2.58,1.68v1.7h0c.55-.2,1.16-.51,1.85-.91.69-.4,1.24-.81,1.66-1.21v11.2h1.76v-14.38h-1.13Z"/>
    <path class="cls-2" d="m222.38,45.61c.65-.3,1.14-.7,1.47-1.21.33-.51.5-1.07.5-1.69,0-.65-.17-1.27-.52-1.85-.35-.58-.85-1.04-1.51-1.37-.66-.34-1.38-.5-2.16-.5-.57,0-1.09.08-1.56.24-.47.16-.9.4-1.28.73-.76.65-1.25,1.56-1.46,2.74l1.76.31h0s0,0,0,0c.13-.86.42-1.5.88-1.93.34-.32.75-.52,1.22-.6.16-.03.32-.04.49-.04.69,0,1.25.21,1.69.63.43.42.65.96.65,1.6,0,.81-.3,1.42-.9,1.81-.3.2-.62.34-.96.44-.34.1-.69.15-1.07.15-.07,0-.17,0-.28-.02h0l-.2,1.54c.49-.13.91-.2,1.24-.2.81,0,1.48.26,2.01.79.53.52.79,1.19.79,2s-.29,1.56-.85,2.13c-.28.29-.6.5-.95.64-.14.06-.29.09-.44.13l-.11.03c-.19.04-.39.05-.6.05-.7,0-1.29-.22-1.77-.66-.49-.44-.83-1.16-1.03-2.15l-1.76.23h0c.12,1.19.59,2.16,1.42,2.91.83.75,1.87,1.12,3.13,1.12.35,0,.68-.03,1-.08.95-.16,1.77-.57,2.46-1.22.91-.87,1.37-1.93,1.37-3.18,0-.92-.24-1.69-.7-2.31-.47-.61-1.13-1.02-1.97-1.22"/>
    <path class="cls-2" d="m111.29,38.98h0c-.31.62-.83,1.26-1.56,1.91-.74.66-1.6,1.22-2.58,1.68v1.7h0c.55-.2,1.16-.51,1.85-.91.69-.4,1.24-.81,1.66-1.21v11.2h1.76v-14.38h-1.13Z"/>
    <polygon class="cls-2" points="116.73 47.29 116.73 47.29 116.73 49.06 122.13 49.06 122.13 49.05 122.13 49.05 122.13 47.29 116.73 47.29"/>
    <path class="cls-2" d="m129.07,38.98h0c-.31.62-.83,1.26-1.56,1.91-.74.66-1.6,1.22-2.58,1.68v1.7h0c.55-.2,1.16-.51,1.85-.91.69-.4,1.24-.81,1.66-1.21v11.2h1.76v-14.38h-1.13Z"/>
    <path class="cls-2" d="m142.1,39.04h-1.44l-6.53,9.28v1.61h6.21v3.43h1.76s0,0,0,0v-3.43h1.93s0,0,0,0v-1.61h-1.93v-9.28Zm-6.24,9.28l4.48-6.45v6.45h-4.48Z"/>
    <path class="cls-2" d="m28.02,40.9c-.74.66-1.6,1.22-2.58,1.68v1.7c.55-.2,1.16-.5,1.85-.91.69-.4,1.24-.81,1.67-1.21v11.2h1.76v-14.38h-1.13c-.31.62-.83,1.26-1.56,1.91"/>
    <polygon class="cls-2" points="35.02 47.3 35.02 49.07 35.02 49.07 40.42 49.07 40.42 49.07 40.42 47.3 35.02 47.3"/>
    <path class="cls-2" d="m45.8,40.9c-.74.66-1.6,1.22-2.58,1.68v1.7c.55-.2,1.16-.5,1.85-.91.69-.4,1.24-.81,1.67-1.21v11.2h1.76v-14.38h-1.13c-.31.62-.83,1.26-1.56,1.91"/>
    <path class="cls-2" d="m61.2,45.17c-.86-.87-1.91-1.3-3.16-1.3-.94,0-1.85.3-2.71.9l.77-3.85h5.71v-1.68h0s-7.12,0-7.12,0l-1.39,7.35,1.65.21c.26-.41.62-.74,1.07-1,.45-.26.97-.39,1.53-.39.91,0,1.65.29,2.21.87.56.58.84,1.37.84,2.37,0,1.06-.29,1.9-.88,2.54s-1.3.96-2.15.96c-.7,0-1.3-.23-1.8-.68-.5-.45-.82-1.13-.95-2.03l-1.85.16h0c.12,1.2.59,2.17,1.41,2.9.82.73,1.88,1.09,3.19,1.09,1.59,0,2.84-.58,3.76-1.74.76-.95,1.13-2.06,1.13-3.36,0-1.36-.43-2.47-1.29-3.34"/>
  </g>
</svg>